HIERARCHY
ROOT Hips
{
    OFFSET 0.000000 0.000000 0.000000
    CHANNELS 6 Xposition Yposition Zposition Zrotation Xrotation Yrotation
    JOINT Spine
    {
        OFFSET -0.000000 7.236184 0.000000
        CHANNELS 3 Zrotation Xrotation Yrotation
        JOINT Spine1
        {
            OFFSET -0.000000 20.420147 0.000000
            CHANNELS 3 Zrotation Xrotation Yrotation
            JOINT Neck
            {
                OFFSET -0.000000 20.336288 1.848754
                CHANNELS 3 Zrotation Xrotation Yrotation
                JOINT Head
                {
                    OFFSET -0.000000 12.354461 -1.764923
                    CHANNELS 3 Zrotation Xrotation Yrotation
                    End Site
                    {
                        OFFSET -0.000000 22.061537 0.000000
                    }
                }
            }
            JOINT LeftShoulder
            {
                OFFSET 3.573296 18.396038 -0.314103
                CHANNELS 3 Zrotation Xrotation Yrotation
                JOINT LeftArm
                {
                    OFFSET 10.880760 0.000000 0.000000
                    CHANNELS 3 Zrotation Xrotation Yrotation
                    JOINT LeftForeArm
                    {
                        OFFSET 27.185530 0.000000 0.000000
                        CHANNELS 3 Zrotation Xrotation Yrotation
                        JOINT LeftHand
                        {
                            OFFSET 27.825975 0.000000 0.000000
                            CHANNELS 3 Zrotation Xrotation Yrotation
                            End Site
                            {
                                OFFSET 13.236923 0.000000 0.000000
                            }
                        }
                    }
                }
            }
            JOINT RightShoulder
            {
                OFFSET -3.474926 18.396038 -0.314103
                CHANNELS 3 Zrotation Xrotation Yrotation
                JOINT RightArm
                {
                    OFFSET -10.880760 0.000000 0.000000
                    CHANNELS 3 Zrotation Xrotation Yrotation
                    JOINT RightForeArm
                    {
                        OFFSET -27.185530 0.000000 0.000000
                        CHANNELS 3 Zrotation Xrotation Yrotation
                        JOINT RightHand
                        {
                            OFFSET -27.825975 0.000000 0.000000
                            CHANNELS 3 Zrotation Xrotation Yrotation
                            End Site
                            {
                                OFFSET -13.236923 0.000000 0.000000
                            }
                        }
                    }
                }
            }
        }
    }
    JOINT LeftUpLeg
    {
        OFFSET 8.824615 0.000000 0.000000
        CHANNELS 3 Zrotation Xrotation Yrotation
        JOINT LeftLeg
        {
            OFFSET -0.000000 -35.111282 0.000000
            CHANNELS 3 Zrotation Xrotation Yrotation
            JOINT LeftFoot
            {
                OFFSET -0.000000 -42.324711 0.000000
                CHANNELS 3 Zrotation Xrotation Yrotation
                JOINT LeftToeBase
                {
                    OFFSET -0.000000 -5.735999 13.236923
                    CHANNELS 3 Zrotation Xrotation Yrotation
                    End Site
                    {
                        OFFSET -0.000000 0.000000 3.529846
                    }
                }
            }
        }
    }
    JOINT RightUpLeg
    {
        OFFSET -8.824615 0.000000 0.000000
        CHANNELS 3 Zrotation Xrotation Yrotation
        JOINT RightLeg
        {
            OFFSET -0.000000 -35.111282 0.000000
            CHANNELS 3 Zrotation Xrotation Yrotation
            JOINT RightFoot
            {
                OFFSET -0.000000 -42.324711 0.000000
                CHANNELS 3 Zrotation Xrotation Yrotation
                JOINT RightToeBase
                {
                    OFFSET -0.000000 -5.735999 13.236923
                    CHANNELS 3 Zrotation Xrotation Yrotation
                    End Site
                    {
                        OFFSET -0.000000 0.000000 3.529846
                    }
                }
            }
        }
    }
}
MOTION
Frames:    4
Frame Time:    0.008333
-8.110937    85.230408    83.955727    11.593432    20.518383    -92.055557    -4.787672    -16.046112    3.384848    -2.915886    13.594280    4.407777    7.123861    25.862991    -16.411354    22.895323    3.866502    -13.997378    -0.827752    17.342005    4.019822    -48.367596    26.649273    -27.393147    21.970018    -29.285763    -115.796875    26.598917    6.980415    4.173540    5.598853    20.066833    -4.425300    41.973980    44.325150    41.054993    -13.744307    -7.958169    30.684734    -11.670058    -4.046865    -1.404318    17.483168    -22.664454    2.445113    1.337728    28.422831    6.019739    1.154538    -15.266090    -8.741518    0.309060    0.267082    -0.342418    -5.480731    -26.346279    3.095664    12.008822    36.155285    -10.537593    23.859156    21.958553    -10.780140    -1.620138    -1.535696    1.756029    
-8.038489    85.315224    83.973846    11.629587    20.818151    -92.033768    -4.724208    -15.961164    3.342756    -2.398456    13.572555    4.290974    7.216012    25.978678    -16.407412    22.872747    3.520844    -13.908886    -0.736766    17.357672    3.925847    -48.355812    26.849127    -27.581829    21.998873    -29.358580    -115.810112    26.275984    6.956945    4.213931    5.630356    20.040905    -4.520907    42.154747    43.890282    40.792778    -13.802310    -8.030458    30.613934    -12.086318    -4.113339    -1.350453    17.782721    -22.669382    2.490461    1.347260    28.249012    6.057072    1.132204    -15.138979    -8.830111    0.344168    0.279609    -0.381306    -6.096488    -26.917534    2.410898    11.992686    37.202721    -10.210325    23.923067    22.151251    -10.483426    -1.693926    -1.294824    1.835382    
-7.963538    85.405258    83.988289    11.660993    21.142969    -91.973228    -4.664165    -15.865328    3.287020    -1.851819    13.544390    4.157295    7.309167    26.114647    -16.397032    22.851900    3.170318    -13.810742    -0.626312    17.348034    3.802901    -48.269436    27.064840    -27.859383    22.031212    -29.467716    -115.857239    25.997711    6.924174    4.247239    5.664611    20.012003    -4.624752    42.348587    43.429321    40.509712    -13.867314    -8.100319    30.541845    -12.531997    -4.175129    -1.301686    18.102045    -22.682524    2.529971    1.361467    28.065104    6.080702    1.101037    -15.002114    -8.934762    0.386954    0.293634    -0.428699    -6.754231    -27.483046    1.689451    11.948926    38.295204    -9.867758    23.922598    22.286671    -10.240538    -1.756935    -1.091104    1.903109    
-7.886659    85.499382    83.999199    11.687139    21.490669    -91.872452    -4.605994    -15.759003    3.217701    -1.280796    13.508668    4.007266    7.401579    26.269217    -16.379072    22.833134    2.817175    -13.702505    -0.499040    17.312069    3.653761    -48.108711    27.287720    -28.223433    22.065983    -29.607578    -115.937447    25.762173    6.885428    4.271799    5.701725    19.979454    -4.736557    42.551689    42.945686    40.211048    -13.938342    -8.166256    30.465225    -13.005076    -4.231378    -1.258952    18.438938    -22.706264    2.565324    1.380610    27.874613    6.087005    1.061282    -14.857100    -9.054911    0.437018    0.309035    -0.484150    -7.453588    -28.033684    0.947750    11.883516    39.417603    -9.521688    23.860674    22.367134    -10.053540    -1.807577    -0.927348    1.957515    
